<?xml version="1.0" standalone="no"?><!DOCTYPE svg PUBLIC "-//W3C//DTD SVG 1.1//EN" "http://www.w3.org/Graphics/SVG/1.1/DTD/svg11.dtd"><svg t="1683292745913" class="icon" viewBox="0 0 1024 1024" version="1.1" xmlns="http://www.w3.org/2000/svg" p-id="9993" xmlns:xlink="http://www.w3.org/1999/xlink" width="200" height="200"><path d="M512 512m-512 0a512 512 0 1 0 1024 0 512 512 0 1 0-1024 0Z" fill="#9D5AFF" p-id="9994"></path><path d="M707.5 247.8c-108.2-108.2-283.5-108.2-391.7 0-94.1 94.1-108 241.8-33 351.8 109.9 161.3 347.8 161.3 457.7 0 74.9-110 61.1-257.7-33-351.8zM613 473.5c-16.5 0-29.8-13.4-29.8-29.8 0-40.8-33.2-74-74-74s-74 33.2-74 74 33.2 74 74 74c16.5 0 29.8 13.4 29.8 29.8s-13.4 29.8-29.8 29.8c-73.7 0-133.7-60-133.7-133.7S435.5 310 509.2 310s133.7 60 133.7 133.7c-0.1 16.4-13.4 29.8-29.9 29.8z" fill="#FFFFFF" p-id="9995"></path><path d="M282.8 599.6L430.9 817c38.8 56.9 122.7 56.9 161.5 0l148.1-217.4C630.6 761 392.7 761 282.8 599.6z" fill="#FFFFFF" opacity=".9" p-id="9996"></path></svg>